<?xml version="1.0" encoding="utf-8"?>
<!DOCTYPE svg PUBLIC "-//W3C//DTD SVG 1.0//EN" "http://www.w3.org/TR/2001/REC-SVG-20010904/DTD/svg10.dtd">
<svg version="1.0" xmlns="http://www.w3.org/2000/svg" width="155px" height="176px" viewBox="0 0 155 176" preserveAspectRatio="xMidYMid meet">
 <g fill="#ffffff">
  <path d="M67.46 164.74 l-2.87 -0.42 -0.02 -3.76 c-0.02 -2.08 -0.05 -3.84 -0.06 -3.94 -0.02 -0.08 -0.05 -0.37 -0.06 -0.65 -0.02 -0.36 -0.11 -0.50 -0.37 -0.55 -1.97 -0.40 -6.80 -1.70 -8.61 -2.29 -10.53 -3.49 -20.31 -9.48 -27.85 -17.02 -10.91 -10.95 -17.87 -24.93 -20 -40.22 -0.97 -6.91 -0.86 -14.68 0.31 -21.47 2.95 -17.29 12.46 -33.23 26.22 -43.97 2 -1.57 6.62 -4.63 8.65 -5.76 4.17 -2.29 8.93 -4.38 13.08 -5.72 1.82 -0.58 6.47 -1.74 7.83 -1.95 l0.69 -0.10 0.11 -0.98 c0.05 -0.55 0.08 -2.52 0.06 -4.39 l-0.05 -3.39 2.34 -0.34 c1.28 -0.19 2.86 -0.39 3.50 -0.45 l1.16 -0.11 0 13.37 0 13.37 6.14 0 6.14 0 0 -13.35 0 -13.37 0.37 0 c0.19 0 1.70 0.18 3.33 0.40 1.63 0.23 3.05 0.40 3.18 0.40 0.19 0 0.23 0.74 0.23 4.36 l0 4.36 0.37 0.08 c5.18 1.16 6.65 1.55 9.88 2.68 7.78 2.68 15.68 7.17 22.12 12.56 3.81 3.18 8.93 8.80 12.16 13.35 6.18 8.72 10.56 19.57 12.13 30.10 0.58 3.94 0.71 5.83 0.71 10.41 0.02 4.54 -0.10 6.18 -0.71 10.58 -2.15 15.48 -9.85 30.23 -21.46 41.11 -8.93 8.36 -20.65 14.56 -32.61 17.24 -1.02 0.24 -2.02 0.47 -2.21 0.50 l-0.37 0.08 0 4.42 0 4.41 -1.97 0.26 c-4.50 0.60 -4.97 0.65 -5.05 0.58 -0.05 -0.05 -0.08 -6.17 -0.08 -13.61 l0 -13.51 -1.26 0.13 c-1.55 0.16 -8.46 0.16 -9.91 0.02 l-1.10 -0.11 0 13.55 0 13.56 -0.60 -0.02 c-0.34 -0.02 -1.91 -0.21 -3.47 -0.42z m-2.97 -16.94 c0.15 -0.37 0.11 -10.77 -0.03 -11 -0.06 -0.11 -1.02 -0.45 -2.10 -0.77 -11.14 -3.23 -21.68 -11.12 -28.37 -21.23 -4.67 -7.06 -7.22 -14.13 -8.33 -23.17 -0.29 -2.36 -0.24 -8.85 0.10 -11.63 1.21 -10.07 4.97 -18.89 11.40 -26.82 1.89 -2.31 3.13 -3.62 3.49 -3.62 0.19 0 1.15 0.90 2.57 2.44 1.23 1.34 2.28 2.50 2.29 2.60 0.03 0.08 -0.44 0.71 -1.05 1.39 -3.49 3.88 -6.04 7.80 -7.93 12.11 -2.18 5.05 -3.28 9.46 -3.76 15.26 -0.37 4.38 0.31 10.64 1.63 15.19 3.62 12.37 12.27 22.52 23.98 28.13 2.12 1 4.86 2.10 5.73 2.28 l0.48 0.10 0 -5.81 0 -5.81 -1.66 -0.81 c-6.85 -3.34 -12.56 -9.01 -15.89 -15.79 -6.30 -12.87 -3.70 -28.22 6.49 -38.44 2.87 -2.87 5.62 -4.86 9.17 -6.62 l1.89 -0.95 0 -13.09 c0 -7.20 -0.05 -14.08 -0.10 -15.27 l-0.11 -2.18 -1.45 0.31 c-5.26 1.15 -11.59 3.65 -16.84 6.68 -15.73 9.07 -27.03 24.77 -30.48 42.37 -0.98 5.02 -1.45 10.61 -1.23 14.71 0.55 9.64 2.44 17.24 6.28 25.25 6.23 12.95 15.86 22.68 28.85 29.19 4.13 2.07 7.65 3.41 12.01 4.55 3.16 0.84 2.84 0.79 2.97 0.47z m28.92 -0.34 c12.22 -3.02 24.67 -10.85 32.89 -20.68 5.04 -6.04 9.35 -13.98 11.74 -21.62 2.79 -8.91 3.57 -18.02 2.34 -27.50 -3 -23.49 -19.49 -43.63 -42.04 -51.38 -2.76 -0.94 -7.14 -2.10 -7.31 -1.92 -0.06 0.06 -0.10 2.57 -0.08 5.57 l0.05 5.46 1.86 0.57 c8.22 2.49 15.63 6.97 21.75 13.16 7.44 7.51 12.50 17.02 14.40 27.09 0.66 3.52 0.87 6.38 0.77 11.06 -0.13 6.31 -0.73 9.99 -2.53 15.42 -2.37 7.10 -6.28 13.72 -11.11 18.73 l-1.63 1.70 -2.58 -2.57 -2.58 -2.58 1.23 -1.29 c5.28 -5.60 9.30 -13.08 10.95 -20.38 2.37 -10.51 0.87 -21.76 -4.13 -31.23 -1.02 -1.89 -3.46 -5.59 -4.92 -7.43 -1.44 -1.79 -4.96 -5.30 -6.68 -6.68 -2.36 -1.87 -5.63 -3.96 -8.23 -5.25 -2.26 -1.11 -5.02 -2.24 -6.17 -2.52 l-0.45 -0.11 0 5.91 0 5.91 0.45 0.18 c1 0.37 3.44 1.70 4.88 2.63 4.49 2.94 8.30 7.06 11.14 12.06 0.66 1.16 1.23 2.18 1.26 2.24 0.02 0.06 -0.19 0.21 -0.48 0.32 -0.29 0.11 -1.76 0.79 -3.26 1.49 -1.49 0.69 -2.76 1.26 -2.83 1.26 -0.05 0 -0.37 -0.53 -0.71 -1.19 -1.44 -2.81 -3.83 -5.88 -6.05 -7.78 -1.26 -1.08 -3.96 -2.97 -4.25 -2.97 -0.08 0 -0.15 7.18 -0.15 18.63 l0 18.63 -1.40 1.05 c-1.45 1.07 -2.92 1.95 -4.68 2.84 l-1.02 0.50 0 -31.71 0 -31.71 -1.24 -0.13 c-1.65 -0.18 -7.81 -0.18 -9.61 -0.02 l-1.42 0.15 0 5.63 0 5.63 0.37 0 c0.19 0 1.23 -0.11 2.29 -0.24 1.07 -0.13 2.28 -0.24 2.71 -0.24 l0.76 0 0 3.52 0 3.54 -1.81 0.19 c-6.43 0.69 -12.21 3.31 -16.55 7.49 -4.99 4.81 -7.65 10.40 -8.28 17.37 -0.19 2.20 -0.05 4.39 0.48 7.14 1.29 6.73 5.52 12.93 11.63 17.07 0.66 0.45 1.26 0.77 1.32 0.74 0.06 -0.05 0.13 -8.33 0.13 -18.39 l0 -18.31 0.86 -0.63 c1.76 -1.31 5.43 -3.42 5.93 -3.42 0.11 0 0.16 10.01 0.16 31.24 l0 31.23 0.61 0.13 c0.74 0.16 11 0.18 11.38 0.02 0.26 -0.11 0.27 -0.55 0.27 -5.88 l0 -5.75 -0.68 0.10 c-1.57 0.23 -3.49 0.42 -4.36 0.42 l-0.94 0 0 -3.55 0 -3.55 0.53 0 c2.26 -0.02 6.52 -0.95 9.20 -2.03 3.41 -1.37 6.01 -3.08 8.78 -5.76 2.08 -2.02 3.31 -3.57 4.57 -5.75 0.47 -0.81 0.94 -1.47 1.05 -1.47 0.11 0 0.81 0.31 1.57 0.69 0.74 0.39 2.08 1.02 2.97 1.39 0.87 0.39 1.65 0.74 1.71 0.81 0.16 0.15 -1.94 3.75 -3.12 5.33 -3.26 4.38 -7.57 7.99 -12.38 10.35 l-1.81 0.89 0 15.39 0 15.37 0.45 -0.10 c0.24 -0.05 1.16 -0.27 2.05 -0.50z"/>
  <path d="M51.99 48.70 c-2.16 -0.58 -3.71 -2.55 -3.71 -4.70 0 -1.34 0.42 -2.31 1.45 -3.34 0.73 -0.73 1.11 -0.97 1.86 -1.19 3.91 -1.13 7.39 2.39 6.10 6.17 -0.40 1.19 -1.78 2.49 -3.10 2.94 -1.18 0.40 -1.55 0.42 -2.60 0.13z"/>
  <path d="M100.48 133.41 c-1.03 -0.36 -2.18 -1.49 -2.70 -2.65 -0.39 -0.84 -0.45 -1.15 -0.39 -2.07 0.10 -1.81 1.13 -3.33 2.78 -4.07 0.98 -0.44 3.26 -0.42 4.18 0.03 0.87 0.44 1.82 1.34 2.26 2.16 0.47 0.89 0.50 3.25 0.05 4.15 -0.44 0.90 -1.47 1.87 -2.41 2.33 -0.98 0.45 -2.68 0.52 -3.78 0.11z"/>
 </g>
</svg>